HIERARCHY
ROOT Hips
{
    OFFSET 0.000000 0.000000 0.000000
    CHANNELS 6 Xposition Yposition Zposition Zrotation Xrotation Yrotation
    JOINT Spine
    {
        OFFSET -0.000000 7.925200 0.000000
        CHANNELS 3 Zrotation Xrotation Yrotation
        JOINT Spine1
        {
            OFFSET -0.000000 23.364719 0.000000
            CHANNELS 3 Zrotation Xrotation Yrotation
            JOINT Neck
            {
                OFFSET -0.000000 23.268766 2.115342
                CHANNELS 3 Zrotation Xrotation Yrotation
                JOINT Head
                {
                    OFFSET -0.000000 13.530829 -1.932976
                    CHANNELS 3 Zrotation Xrotation Yrotation
                    End Site
                    {
                        OFFSET -0.000000 24.162195 0.000000
                    }
                }
            }
            JOINT LeftShoulder
            {
                OFFSET 3.858291 22.792089 -0.033814
                CHANNELS 3 Zrotation Xrotation Yrotation
                JOINT LeftArm
                {
                    OFFSET 7.057024 0.000000 0.000000
                    CHANNELS 3 Zrotation Xrotation Yrotation
                    JOINT LeftForeArm
                    {
                        OFFSET 34.734173 0.000000 0.000000
                        CHANNELS 3 Zrotation Xrotation Yrotation
                        JOINT LeftHand
                        {
                            OFFSET 23.943203 0.000000 0.000000
                            CHANNELS 3 Zrotation Xrotation Yrotation
                            End Site
                            {
                                OFFSET 14.497317 0.000000 0.000000
                            }
                        }
                    }
                }
            }
            JOINT RightShoulder
            {
                OFFSET -3.868823 22.792089 -0.033814
                CHANNELS 3 Zrotation Xrotation Yrotation
                JOINT RightArm
                {
                    OFFSET -7.057024 0.000000 0.000000
                    CHANNELS 3 Zrotation Xrotation Yrotation
                    JOINT RightForeArm
                    {
                        OFFSET -34.734173 0.000000 0.000000
                        CHANNELS 3 Zrotation Xrotation Yrotation
                        JOINT RightHand
                        {
                            OFFSET -23.943203 0.000000 0.000000
                            CHANNELS 3 Zrotation Xrotation Yrotation
                            End Site
                            {
                                OFFSET -14.497317 0.000000 0.000000
                            }
                        }
                    }
                }
            }
        }
    }
    JOINT LeftUpLeg
    {
        OFFSET 9.664878 0.000000 0.000000
        CHANNELS 3 Zrotation Xrotation Yrotation
        JOINT LeftLeg
        {
            OFFSET -0.000000 -38.728706 0.000000
            CHANNELS 3 Zrotation Xrotation Yrotation
            JOINT LeftFoot
            {
                OFFSET -0.000000 -40.242161 0.000000
                CHANNELS 3 Zrotation Xrotation Yrotation
                JOINT LeftToeBase
                {
                    OFFSET -0.000000 -6.282171 14.497317
                    CHANNELS 3 Zrotation Xrotation Yrotation
                    End Site
                    {
                        OFFSET -0.000000 0.000000 3.865951
                    }
                }
            }
        }
    }
    JOINT RightUpLeg
    {
        OFFSET -9.664878 0.000000 0.000000
        CHANNELS 3 Zrotation Xrotation Yrotation
        JOINT RightLeg
        {
            OFFSET -0.000000 -38.728706 0.000000
            CHANNELS 3 Zrotation Xrotation Yrotation
            JOINT RightFoot
            {
                OFFSET -0.000000 -40.242161 0.000000
                CHANNELS 3 Zrotation Xrotation Yrotation
                JOINT RightToeBase
                {
                    OFFSET -0.000000 -6.282171 14.497317
                    CHANNELS 3 Zrotation Xrotation Yrotation
                    End Site
                    {
                        OFFSET -0.000000 0.000000 3.865951
                    }
                }
            }
        }
    }
}
MOTION
Frames:    13
Frame Time:    0.008333
122.592751    88.740036    1.257935    -0.422016    -1.627449    88.543953    2.854737    -3.876179    0.096620    -1.402158    0.527233    0.010686    -2.069483    17.585928    6.356535    -2.860172    -0.693469    6.166127    15.546859    -1.465308    2.887067    -8.008829    4.265718    -10.367370    7.234645    -0.217663    -3.220930    -2.318052    0.017766    -1.773486    -13.908907    0.864318    6.451151    11.144578    3.337007    10.342569    -2.577731    -0.491761    0.012138    2.389224    -0.446602    2.156828    2.763650    4.011971    -2.059752    -2.345979    -1.091755    -3.012118    1.329204    -4.022483    12.426200    0.000000    0.000000    0.000000    2.150148    0.700570    2.813218    -1.532679    4.958674    0.714607    1.097083    -5.274980    -14.978030    0.000000    0.000000    0.000000    
122.597313    88.739021    1.250138    -0.409377    -1.633880    88.552895    2.868130    -3.841977    0.086326    -1.412803    0.476599    -0.008740    -1.951158    17.757689    6.357582    -3.094281    -0.880362    6.125878    15.491882    -1.433874    2.882247    -8.058202    4.256819    -10.367373    7.149299    -0.370505    -3.201656    -2.181233    -0.139807    -1.622074    -13.971202    0.861184    6.503489    11.308589    3.318446    10.318368    -2.597090    -0.483530    -0.005867    2.454465    -0.435830    2.235277    2.762168    4.014216    -2.043673    -2.340410    -1.067555    -3.033189    1.330238    -4.035123    12.417034    0.000000    0.000000    0.000000    2.149127    0.712420    2.815756    -1.525993    4.970449    0.716375    1.092047    -5.294321    -14.998720    0.000000    0.000000    0.000000    
122.618355    88.728561    1.240516    -0.357429    -1.630769    88.557007    2.887020    -3.810285    0.073936    -1.443195    0.477859    -0.015697    -1.961151    17.785732    6.367273    -3.093421    -0.872376    6.135651    15.455896    -1.433688    2.868156    -8.062130    4.307428    -10.352108    7.131465    -0.362925    -3.162663    -2.249027    -0.133083    -1.666483    -13.850547    0.907566    6.548658    11.208663    3.224562    10.293742    -2.550195    -0.485340    0.007395    2.523806    -0.435593    2.257684    2.755640    4.098673    -2.076960    -2.349620    -1.103435    -3.000132    1.357507    -4.056408    12.410295    0.000000    0.000000    0.000000    2.131661    0.790295    2.789579    -1.520737    4.945292    0.687730    1.068271    -5.316951    -14.927979    0.000000    0.000000    0.000000    
122.599236    88.735092    1.241921    -0.405834    -1.637772    88.561874    2.878181    -3.841261    0.082550    -1.436094    0.469968    -0.008017    -1.921392    17.780819    6.353937    -3.124272    -0.852672    6.118340    15.467353    -1.421836    2.825819    -8.106455    4.277807    -10.350031    7.079103    -0.326768    -3.119099    -2.250394    -0.099267    -1.771705    -13.904670    0.856564    6.538684    11.331450    3.285331    10.282874    -2.582803    -0.519501    -0.018928    2.494502    -0.471055    2.250250    2.763495    4.008049    -2.045042    -2.347407    -1.052953    -3.031725    1.350915    -4.050776    12.407652    0.000000    0.000000    0.000000    2.143654    0.713291    2.816350    -1.521614    4.977985    0.664152    1.083112    -5.297820    -14.945569    0.000000    0.000000    0.000000    
122.600342    88.736931    1.241934    -0.405076    -1.645764    88.570824    2.862072    -3.829529    0.078572    -1.393128    0.442609    -0.014410    -1.939129    17.820160    6.369213    -3.141771    -0.875599    6.130029    15.414812    -1.400418    2.803630    -8.113439    4.303107    -10.357251    7.040409    -0.314616    -3.054848    -2.277003    -0.091493    -1.780736    -13.833934    0.929679    6.530555    11.248007    3.233739    10.309582    -2.562218    -0.547107    -0.026323    2.468450    -0.500009    2.212695    2.776627    4.000057    -2.042544    -2.355732    -1.032829    -3.040008    1.372748    -4.061013    12.399811    0.000000    0.000000    0.000000    2.151289    0.713077    2.801289    -1.519733    4.981266    0.673742    1.101028    -5.295078    -14.951950    0.000000    0.000000    0.000000    
122.620224    88.728073    1.231700    -0.358884    -1.639695    88.563843    2.906593    -3.824883    0.065798    -1.476518    0.503740    -0.025623    -1.930518    17.805649    6.381538    -3.143601    -0.890497    6.142601    15.442948    -1.399267    2.831400    -8.137820    4.249412    -10.341017    6.945921    -0.300863    -3.056406    -2.271699    -0.080526    -1.769169    -13.801210    0.915947    6.539183    11.270019    3.203403    10.343286    -2.546989    -0.559939    -0.052560    2.433615    -0.514019    2.215336    2.753969    4.077749    -2.027737    -2.343334    -1.064121    -3.023272    1.371776    -4.080911    12.375352    0.000000    0.000000    0.000000    2.127630    0.786516    2.808509    -1.505969    4.957529    0.687156    1.083622    -5.325282    -14.959809    0.000000    0.000000    0.000000    
122.616783    88.728195    1.230015    -0.362580    -1.647114    88.574074    2.886297    -3.796497    0.066009    -1.430576    0.438056    -0.025892    -1.937751    17.857330    6.379148    -3.164840    -0.894824    6.135729    15.389468    -1.374806    2.779856    -8.162837    4.250630    -10.327545    6.900913    -0.333741    -2.993358    -2.271890    -0.118056    -1.779493    -13.780100    0.939156    6.559168    11.265462    3.169688    10.322570    -2.528815    -0.525918    -0.050399    2.376541    -0.482194    2.164967    2.766529    4.065546    -2.037051    -2.351613    -1.056348    -3.023451    1.382109    -4.077484    12.368789    0.000000    0.000000    0.000000    2.136293    0.780541    2.795586    -1.511761    4.956953    0.637724    1.133509    -5.336651    -14.918149    0.000000    0.000000    0.000000    
122.619858    88.728020    1.226643    -0.361286    -1.643410    88.576187    2.742955    -3.933753    0.179879    -1.301667    0.723661    0.094404    -1.548435    17.700710    6.230137    -3.471445    -0.833031    5.944727    15.597684    -1.461159    2.587633    -8.406891    4.197592    -10.415798    6.900101    -0.310044    -2.880925    -2.402293    -0.099100    -1.768819    -13.599160    0.745145    6.220871    11.088844    3.400096    10.323555    -2.504773    -0.546516    -0.004937    2.387105    -0.501487    2.165067    2.757066    4.063994    -2.034699    -2.344377    -1.047801    -2.997714    1.392543    -4.082006    12.340420    0.000000    0.000000    0.000000    2.127552    0.778526    2.788545    -1.505983    4.975148    0.678370    1.107375    -5.346157    -14.945173    0.000000    0.000000    0.000000    
122.620735    88.731888    1.224293    -0.366319    -1.639948    88.554405    2.750818    -3.938749    0.182524    -1.329376    0.723284    0.096656    -1.542996    17.675686    6.230270    -3.462009    -0.788400    5.948038    15.612445    -1.449205    2.582349    -8.464263    4.161488    -10.402598    6.877071    -0.224421    -2.848320    -2.420542    -0.016337    -1.799001    -13.568393    0.742041    6.261271    11.096217    3.403648    10.304063    -2.496159    -0.526030    0.005167    2.419077    -0.480177    2.173150    2.749074    4.062771    -2.000021    -2.343800    -1.049972    -3.013696    1.367008    -4.082270    12.350125    0.000000    0.000000    0.000000    2.122123    0.771642    2.809793    -1.506066    4.968419    0.626677    1.109534    -5.321577    -14.895369    0.000000    0.000000    0.000000    
122.622513    88.731674    1.220912    -0.363283    -1.642400    88.549919    2.902647    -3.824762    0.068966    -1.487269    0.488526    -0.022540    -1.844491    17.840290    6.393635    -3.271484    -0.891376    6.136673    15.431064    -1.445118    2.740033    -8.318833    4.355916    -10.297976    6.869074    -0.208418    -2.878278    -2.391699    0.003803    -1.857772    -13.808831    0.867738    6.601606    11.412095    3.213444    10.306474    -2.513243    -0.489209    -0.040260    2.420566    -0.444140    2.176302    2.752647    4.069218    -1.988664    -2.342997    -1.046700    -3.038234    1.372890    -4.090541    12.349726    0.000000    0.000000    0.000000    2.120289    0.779089    2.796423    -1.504808    4.958635    0.655990    1.098524    -5.324123    -14.908988    0.000000    0.000000    0.000000    
122.621628    88.730881    1.221193    -0.359275    -1.649941    88.559395    2.972978    -4.035503    0.090780    -1.665126    1.081627    0.003233    -1.610288    17.091059    6.349081    -3.331198    -0.493362    6.107786    15.905661    -1.618334    3.163215    -8.585486    4.283089    -10.651551    6.737371    -0.258978    -2.983359    -2.237666    -0.054816    -1.474635    -13.851700    0.616263    6.060774    11.420027    3.367550    10.688452    -2.425344    -0.621126    0.037931    2.435299    -0.574736    2.149462    2.767615    4.066383    -2.000221    -2.328854    -1.026666    -3.089459    1.324713    -4.118546    12.365574    0.000000    0.000000    0.000000    2.130930    0.777916    2.785260    -1.508343    4.971385    0.643328    1.116155    -5.326817    -14.893184    0.000000    0.000000    0.000000    
122.621849    88.731537    1.218439    -0.359407    -1.648776    88.555672    2.745996    -3.921257    0.161837    -1.288487    0.715979    0.076618    -1.614801    17.686218    6.257564    -3.448708    -0.825684    5.976207    15.521192    -1.528265    2.565340    -8.532605    4.207222    -10.359301    6.792390    -0.227395    -2.803905    -2.398451    -0.022095    -1.877090    -13.727909    0.717310    6.297007    11.290934    3.432585    10.329711    -2.472192    -0.600360    0.011051    2.401256    -0.554190    2.193819    2.761150    4.066428    -1.992459    -2.316529    -1.024298    -3.107887    1.298272    -4.124250    12.366543    0.000000    0.000000    0.000000    2.125987    0.786631    2.856897    -1.502455    4.952690    0.582085    1.111877    -5.311093    -14.887702    0.000000    0.000000    0.000000    
122.626411    88.733429    1.215469    -0.354733    -1.643980    88.545479    2.739890    -3.940734    0.177631    -1.304416    0.767308    0.092173    -1.556048    17.645540    6.243637    -3.476940    -0.807469    5.959433    15.564207    -1.466883    2.594489    -8.591712    4.119750    -10.424702    6.773404    -0.252790    -2.804732    -2.441324    -0.047319    -1.889838    -13.619703    0.738160    6.229198    11.184300    3.437663    10.373031    -2.455524    -0.658872    0.024162    2.389796    -0.612324    2.207155    2.755307    4.079495    -1.995103    -2.315166    -1.031181    -3.106221    1.288792    -4.116921    12.370381    0.000000    0.000000    0.000000    2.113804    0.789174    2.821232    -1.495636    4.964303    0.631565    1.130149    -5.326818    -14.907176    0.000000    0.000000    0.000000    
